PathFileType	4	(x/y/z)	S01_PSF_T06.trc
DataRate	CameraRate	NumFrames	NumMarkers	Units	OrigDataRate	OrigDataStartFrame	OrigNumFrames
240	240	8	51	mm	240	354	471
Frame#	Time	Sternum			R.Acromium			L.Acromium			Top.Head			R.ASIS			L.ASIS			R.PSIS			L.PSIS			R.Great.Tro			L.Great.Tro			R.Iliac.Crest			L.Iliac.Crest			V.Sacral			R.Thigh.Upper.Post			R.Thigh.Lower.Ant			R.Thigh.Lower.Post			R.Thigh.Upper.Ant			R.Knee.Lat			R.Knee.Med			R.Shank.Upper.Post			R.Shank.Lower.Ant			R.Shank.Lower.Post			R.Shank.Upper.Ant			R.Ankle.Lat			R.Ankle.Med			R.Heel.Upper			R.Heel.Med			R.Heel.Lat			R.Toe.Lat			R.Toe.Med			R.Toe.Tip			L.Thigh.Upper.Post			L.Thigh.Lower.Ant			L.Thigh.Lower.Post			L.Thigh.Upper.Ant			L.Knee.Lat			L.Knee.Med			L.Shank.Upper.Post			L.Shank.Lower.Ant			L.Shank.Lower.Post			L.Shank.Upper.Ant			L.Ankle.Lat			L.Ankle.Med			L.Heel.Upper			L.Heel.Med			L.Heel.Lat			L.Toe.Lat			L.Toe.Med			L.Toe.Tip			Cervical.Spine			Back			
		X1	Y1	Z1	X2	Y2	Z2	X3	Y3	Z3	X4	Y4	Z4	X5	Y5	Z5	X6	Y6	Z6	X7	Y7	Z7	X8	Y8	Z8	X9	Y9	Z9	X10	Y10	Z10	X11	Y11	Z11	X12	Y12	Z12	X13	Y13	Z13	X14	Y14	Z14	X15	Y15	Z15	X16	Y16	Z16	X17	Y17	Z17	X18	Y18	Z18	X19	Y19	Z19	X20	Y20	Z20	X21	Y21	Z21	X22	Y22	Z22	X23	Y23	Z23	X24	Y24	Z24	X25	Y25	Z25	X26	Y26	Z26	X27	Y27	Z27	X28	Y28	Z28	X29	Y29	Z29	X30	Y30	Z30	X31	Y31	Z31	X32	Y32	Z32	X33	Y33	Z33	X34	Y34	Z34	X35	Y35	Z35	X36	Y36	Z36	X37	Y37	Z37	X38	Y38	Z38	X39	Y39	Z39	X40	Y40	Z40	X41	Y41	Z41	X42	Y42	Z42	X43	Y43	Z43	X44	Y44	Z44	X45	Y45	Z45	X46	Y46	Z46	X47	Y47	Z47	X48	Y48	Z48	X49	Y49	Z49	X50	Y50	Z50	X51	Y51	Z51	

354	1.4708	616.29	1262.4	239.64	504.74	1519.2	407.4	508.67	1531.3	76.208	576.24	1832.2	238.77	553.42	1015.3	391	561.53	1013.2	122.85	319.87	1058.8	295.42	316.4	1064.9	191.74	477.98	964.43	472.13	447.58	972.37	43.441	468.51	1114.6	454.01	455.06	1096.6	46.032	302.94	1027	238.96	580.09	669.78	451.84	673.13	634.03	425.05	618.08	591.76	428.77	637.04	714.96	446.17	667.11	551.97	424.99	670.04	549.45	273.79	670.18	386.48	444.56	759.25	331.8	408.18	692.36	319.69	433.87	732.68	398.93	424.19	777.27	127.1	402.7	808.18	149.54	313.05	730.88	69.162	338.91	759.1	51.352	310.94	752.26	45.687	374.46	924.74	112.88	443.48	955.73	139.02	325.68	999.63	184.02	383.97	350.24	710.84	72.758	415.85	622.53	79.26	338.15	622.34	91.167	420.65	715.82	58.07	358.94	526.64	83.414	380.63	525.62	228.92	270.28	397.8	72.208	310.74	298.12	100.65	254.22	321.91	79.251	327.64	372.52	88.948	197.02	112.81	129.14	222.17	123.81	224.82	122.41	85.836	174.41	130.87	60.993	208.92	130.34	58.841	146.06	340.06	38.361	116.51	362.52	46.169	239.14	427.57	51.366	189.87	426.5	1587.4	241.56	317.58	1281.4	253.24
355	1.475	621.65	1261.1	240.05	510.21	1517.7	408.14	513.87	1530.1	76.954	581.76	1830.9	239.64	558.9	1013.8	391.13	566.62	1012	122.92	325.22	1057.6	295.93	321.68	1063.8	192.28	483.51	962.91	472.29	452.41	971.53	43.581	474.1	1113.1	454.39	460.09	1095.5	46.311	308.23	1025.9	239.44	585.78	668.53	451.9	678.72	632.88	424.59	623.73	590.55	428.69	642.64	713.77	445.87	672.84	550.91	424.7	674.96	548.15	273.42	677.25	385.38	444.28	766.73	331.46	407.7	699.98	318.79	433.52	739.61	398.38	423.78	786.69	126.8	402.09	817.09	149.62	312.37	740.63	68.391	338.46	768.95	50.873	310.4	762.39	45.102	373.94	934.48	113.99	442.41	964.82	140.59	324.49	1008.5	186	382.66	354.14	710.35	72.99	419.42	621.78	79.325	341.75	621.88	91.411	424.54	715.06	58.146	362.1	526.1	83.515	384.02	524.95	229.02	272.64	397.8	72.324	312.41	297.84	100.69	256.05	322.03	79.289	329.83	372.11	89.031	197.33	113.18	129.21	222.56	124.17	224.85	122.62	86.474	174.47	131.03	61.625	208.99	130.48	59.436	146.14	340.08	38.358	116.53	362.61	46.11	239.14	427.64	51.196	189.87	431.85	1586.1	242.39	322.92	1280.1	253.92
356	1.4792	627.04	1259.8	240.48	515.69	1516.3	408.9	519.07	1528.9	77.721	587.29	1829.6	240.54	564.41	1012.4	391.26	571.73	1010.8	123	330.59	1056.4	296.45	326.97	1062.8	192.83	489.07	961.42	472.46	457.27	970.68	43.747	479.73	1111.6	454.78	465.14	1094.4	46.603	313.55	1024.8	239.95	591.6	667.35	451.95	684.44	631.8	424.13	629.53	589.42	428.61	648.36	712.67	445.56	678.67	549.86	424.41	680.06	546.94	273.09	684.18	384.31	443.96	773.97	331.02	407.18	707.35	317.88	433.13	746.42	397.75	423.34	795.55	126.42	401.41	825.47	149.56	311.63	749.74	67.633	337.94	778.14	50.361	309.77	771.83	44.497	373.33	943.6	114.78	441.28	973.35	141.8	323.24	1016.8	187.54	381.31	358.13	709.82	73.255	423.1	621.01	79.407	345.46	621.38	91.686	428.51	714.29	58.241	365.4	525.53	83.642	387.58	524.24	229.13	275.12	397.8	72.457	314.18	297.55	100.75	257.99	322.16	79.342	332.14	371.69	89.137	197.68	113.6	129.27	222.99	124.57	224.88	122.86	87.178	174.52	131.21	62.324	209.06	130.63	60.093	146.2	340.11	38.36	116.55	362.7	46.05	239.14	427.73	51.014	189.87	437.22	1584.9	243.25	328.27	1278.8	254.61
357	1.4833	632.44	1258.5	240.91	521.19	1514.9	409.69	524.29	1527.7	78.508	592.83	1828.4	241.47	569.96	1011.1	391.4	576.85	1009.6	123.08	335.98	1055.1	297	332.29	1061.8	193.41	494.65	959.95	472.65	462.16	969.83	43.941	485.38	1110.2	455.17	470.2	1093.3	46.91	318.9	1023.8	240.48	597.54	666.24	451.98	690.29	630.8	423.67	635.46	588.36	428.52	654.19	711.64	445.25	684.59	548.84	424.12	685.32	545.81	272.8	690.97	383.26	443.6	780.99	330.47	406.61	714.49	316.96	432.69	753.09	397.05	422.87	803.83	125.95	400.66	833.33	149.35	310.82	758.21	66.876	337.34	786.65	49.8	309.07	780.57	43.865	372.66	952.1	115.26	440.1	981.31	142.61	321.95	1024.6	188.62	379.92	362.2	709.26	73.554	426.89	620.23	79.505	349.29	620.85	91.991	432.57	713.51	58.358	368.84	524.92	83.797	391.31	523.5	229.25	277.73	397.8	72.606	316.05	297.25	100.82	260.03	322.3	79.409	334.56	371.25	89.264	198.07	114.06	129.33	223.44	125.01	224.9	123.12	87.955	174.55	131.4	63.095	209.11	130.8	60.819	146.26	340.15	38.367	116.58	362.81	45.988	239.14	427.82	50.822	189.88	442.61	1583.7	244.14	333.64	1277.6	255.31
358	1.4875	637.87	1257.3	241.36	526.72	1513.4	410.49	529.51	1526.5	79.317	598.38	1827.1	242.43	575.53	1009.7	391.54	582	1008.5	123.16	341.4	1053.9	297.56	337.63	1060.8	194.01	500.27	958.53	472.85	467.08	968.98	44.163	491.07	1108.7	455.58	475.27	1092.3	47.236	324.28	1022.7	241.03	603.6	665.2	451.99	696.26	629.89	423.2	641.53	587.37	428.4	660.14	710.69	444.94	690.59	547.83	423.81	690.75	544.77	272.54	697.61	382.22	443.21	787.78	329.8	406	721.38	316.03	432.21	759.65	396.28	422.37	811.54	125.38	399.86	840.67	148.97	309.96	766.04	66.114	336.68	794.49	49.179	308.31	788.61	43.2	371.92	959.98	115.4	438.89	988.73	143.03	320.63	1031.9	189.22	378.51	366.37	708.67	73.885	430.81	619.43	79.621	353.23	620.27	92.326	436.72	712.72	58.498	372.43	524.29	83.977	395.2	522.72	229.37	280.47	397.81	72.769	318	296.96	100.92	262.17	322.45	79.491	337.09	370.81	89.411	198.49	114.57	129.38	223.94	125.48	224.92	123.4	88.808	174.58	131.6	63.943	209.16	130.99	61.619	146.31	340.19	38.381	116.61	362.92	45.924	239.14	427.92	50.619	189.89	448	1582.5	245.05	339.03	1276.3	256.04
359	1.4917	643.32	1256.1	241.81	532.26	1512	411.33	534.74	1525.4	80.148	603.93	1825.9	243.43	581.14	1008.3	391.7	587.17	1007.3	123.25	346.85	1052.7	298.14	343	1059.7	194.62	505.92	957.14	473.06	472.04	968.12	44.414	496.78	1107.3	455.99	480.36	1091.2	47.58	329.7	1021.6	241.61	609.76	664.23	451.96	702.35	629.04	422.73	647.71	586.46	428.25	666.2	709.81	444.61	696.69	546.83	423.48	696.34	543.81	272.3	704.12	381.19	442.77	794.35	329.03	405.33	728.04	315.07	431.68	766.07	395.42	421.82	818.69	124.72	399.02	847.49	148.42	309.05	773.22	65.345	335.95	801.66	48.491	307.5	795.96	42.5	371.14	967.26	115.21	437.65	995.6	143.02	319.29	1038.8	189.35	377.08	370.64	708.04	74.247	434.84	618.63	79.756	357.3	619.66	92.69	440.96	711.91	58.661	376.16	523.63	84.183	399.26	521.91	229.51	283.33	397.82	72.945	320.04	296.66	101.03	264.42	322.62	79.584	339.74	370.35	89.577	198.96	115.13	129.43	224.47	126	224.94	123.71	89.745	174.6	131.82	64.875	209.2	131.2	62.498	146.35	340.24	38.4	116.64	363.03	45.858	239.15	428.03	50.407	189.9	453.41	1581.3	245.99	344.44	1275	256.78
360	1.4958	648.79	1254.8	242.27	537.82	1510.6	412.18	539.99	1524.2	81	609.5	1824.7	244.46	586.78	1007	391.86	592.37	1006.1	123.35	352.32	1051.5	298.73	348.39	1058.7	195.25	511.61	955.79	473.29	477.03	967.26	44.694	502.52	1105.9	456.42	485.46	1090.2	47.946	335.14	1020.5	242.21	616.03	663.32	451.9	708.54	628.27	422.24	654	585.6	428.07	672.36	709	444.29	702.86	545.86	423.13	702.09	542.94	272.08	710.49	380.18	442.29	800.69	328.14	404.62	734.47	314.1	431.11	772.38	394.49	421.24	825.29	123.95	398.14	853.82	147.69	308.1	779.77	64.568	335.19	808.17	47.734	306.66	802.63	41.767	370.32	973.94	114.69	436.39	1001.9	142.59	317.94	1045.2	188.99	375.62	375	707.39	74.64	439	617.81	79.909	361.49	619.01	93.081	445.29	711.1	58.849	380.04	522.94	84.411	403.47	521.07	229.66	286.32	397.85	73.134	322.18	296.37	101.15	266.78	322.81	79.689	342.49	369.9	89.759	199.48	115.75	129.48	225.04	126.57	224.94	124.06	90.769	174.61	132.06	65.895	209.23	131.43	63.461	146.39	340.29	38.425	116.67	363.16	45.791	239.15	428.14	50.185	189.91	458.84	1580.1	246.95	349.86	1273.8	257.53
361	1.5	654.28	1253.6	242.74	543.4	1509.2	413.05	545.24	1523.1	81.875	615.07	1823.5	245.53	592.46	1005.7	392.03	597.61	1005	123.46	357.82	1050.3	299.35	353.82	1057.6	195.9	517.33	954.49	473.53	482.05	966.4	45.002	508.29	1104.5	456.86	490.59	1089.1	48.334	340.62	1019.4	242.83	622.38	662.46	451.79	714.83	627.56	421.75	660.38	584.81	427.85	678.61	708.24	443.95	709.1	544.9	422.75	707.99	542.14	271.87	716.73	379.17	441.77	806.83	327.13	403.87	740.67	313.1	430.5	778.57	393.48	420.61	831.35	123.09	397.22	859.66	146.78	307.11	785.7	63.789	334.38	814.03	46.91	305.79	808.62	41.008	369.47	980.05	113.84	435.12	1007.8	141.75	316.58	1051.1	188.16	374.16	379.46	706.7	75.061	443.28	616.98	80.08	365.8	618.34	93.498	449.72	710.28	59.061	384.07	522.24	84.661	407.85	520.21	229.82	289.43	397.89	73.334	324.41	296.09	101.28	269.25	323.02	79.804	345.36	369.44	89.954	200.05	116.43	129.51	225.66	127.19	224.94	124.44	91.888	174.61	132.33	67.01	209.25	131.69	64.515	146.41	340.35	38.455	116.7	363.29	45.723	239.15	428.27	49.955	189.93	464.28	1578.9	247.95	355.31	1272.6	258.3
